<?xml version="1.0" standalone="no"?>
<!DOCTYPE svg PUBLIC "-//W3C//DTD SVG 20010904//EN"
 "http://www.w3.org/TR/2001/REC-SVG-20010904/DTD/svg10.dtd">
<svg version="1.0" xmlns="http://www.w3.org/2000/svg"
 width="250.000000pt" height="250.000000pt" viewBox="0 0 250.000000 250.000000"
 preserveAspectRatio="xMidYMid meet">
<metadata>
Created by potrace 1.11, written by Peter Selinger 2001-2013
</metadata>
<g transform="translate(0.000000,250.000000) scale(0.100000,-0.100000)"
fill="#000000" stroke="none">
<path d="M1045 2454 c-395 -70 -736 -318 -911 -662 -26 -51 -29 -62 -15 -62
10 0 270 -147 285 -161 6 -5 23 5 42 25 49 50 98 70 185 73 107 3 189 -24 300
-98 187 -125 291 -319 231 -429 -86 -158 -445 -155 -660 6 -90 67 -140 157
-139 254 l0 55 -89 33 c-49 18 -114 42 -144 53 -85 32 -82 33 -103 -56 -19
-83 -27 -311 -14 -390 26 -163 51 -244 119 -382 98 -198 271 -387 458 -501
126 -76 309 -144 449 -166 95 -16 331 -19 401 -6 25 4 61 11 81 14 56 8 193
54 267 88 69 32 199 109 241 143 59 48 136 120 165 153 17 20 39 46 49 57 100
110 220 370 246 535 12 75 15 253 4 247 -5 -3 -75 -8 -157 -11 -82 -4 -154 -8
-160 -9 -6 -1 -32 -33 -57 -72 -74 -113 -99 -135 -156 -136 -26 -1 -64 -2 -83
-4 -85 -6 -338 -18 -369 -18 -39 1 -72 31 -66 61 2 9 4 20 4 24 2 13 40 29 79
33 20 2 100 6 177 10 197 10 208 11 222 31 7 10 13 30 13 46 0 43 -33 58 -115
54 -261 -16 -325 -19 -347 -17 -26 2 -50 44 -43 74 10 37 43 45 215 52 200 8
241 13 262 32 24 21 23 66 -1 87 -21 19 -57 19 -352 0 -90 -6 -98 -5 -118 15
-48 48 -11 100 71 102 29 1 69 2 88 4 19 1 105 6 190 10 85 4 163 9 172 10 23
5 83 -40 143 -107 l50 -55 65 4 c36 2 90 5 120 7 30 2 74 5 97 5 40 1 41 2 37
28 -28 154 -155 387 -291 533 -57 61 -220 200 -236 200 -2 0 -30 15 -62 34
-106 65 -246 115 -420 152 -65 13 -340 12 -420 -2z m651 -1657 c-13 -122 -112
-265 -220 -316 -42 -19 -46 -24 -46 -56 l0 -35 -139 0 c-146 0 -153 2 -147 46
2 14 -12 27 -50 49 -71 40 -133 101 -168 165 -30 55 -56 138 -56 181 l0 26
416 0 417 0 -7 -60z"/>
</g>
</svg>
