<svg id="Layer_1" data-name="Layer 1" xmlns="http://www.w3.org/2000/svg" viewBox="0 0 1017.85 208.01"><defs><style>.cls-1{fill:#fff;}</style></defs><title>foodtroverts_logo_white</title><path class="cls-1" d="M197,94.09l-27.29,1.47c-.83,2.89-9.46,16-12.44,16.13l-39.11,2.1a4.45,4.45,0,0,1-3.36-1.24,4.75,4.75,0,0,1-.35-6.7,4.47,4.47,0,0,1,3.21-1.61l30.42-1.63a4.5,4.5,0,0,0,3.21-1.59,4.64,4.64,0,0,0,1.21-3.44,4.58,4.58,0,0,0-1.56-3.28,4.42,4.42,0,0,0-3.36-1.24l-30.42,1.63a4.46,4.46,0,0,1-3.36-1.24,4.76,4.76,0,0,1-.35-6.71,4.47,4.47,0,0,1,3.21-1.59l30.42-1.64a4.48,4.48,0,0,0,3.21-1.59,4.62,4.62,0,0,0,1.21-3.43,4.57,4.57,0,0,0-1.56-3.28A4.45,4.45,0,0,0,146.58,74l-30.42,1.64a4.48,4.48,0,0,1-3.36-1.24,4.62,4.62,0,0,1-1.56-3.29,4.7,4.7,0,0,1,1.21-3.43,4.53,4.53,0,0,1,3.21-1.59L154.78,64c3-.16,12.82,10,13.93,12.75l26-1.39C185,32.24,145.6,0,98.5,0,58.2,0,23.56,23.6,8.3,57.39,16.92,62,25.46,66.87,32.39,71.17c6.37-8.62,18.49-11.64,33.3-4.69,17,8,31.1,26.1,25.82,37.79s-27.94,12.54-44.95,4.55C31.75,101.87,26.13,90.5,28.41,80,21,77.48,12.21,74.19,3.48,70.66A93.73,93.73,0,0,0,0,96c0,53,44.1,96,98.5,96s98.5-43,98.5-96C197,95.39,197,94.74,197,94.09Zm-84.83,64.16v5.44H89.65v-5.44A33.52,33.52,0,0,1,68,126.74h65.82A33.52,33.52,0,0,1,112.14,158.24Z"/><path class="cls-1" d="M270.56,56.49H238.7V87.64h22.13v19.47H238.7v53.81H219.23V37h51.33Z"/><path class="cls-1" d="M307.91,162.34q-12.74,0-20.53-7.26-8.85-8.5-8.85-23.19V66q0-14.69,8.85-23.19,7.79-7.26,20.53-7.26t20.53,7.26q8.85,8.5,8.85,23.19v65.84q0,14.69-8.85,23.19Q320.65,162.34,307.91,162.34Zm0-107.26q-5,0-7.26,2.12Q298,59.68,298,66v65.84q0,6.37,2.65,8.85,2.3,2.12,7.26,2.12,5.13,0,7.26-2.12,2.66-2.3,2.65-8.85V66q0-6.55-2.65-8.85Q313,55.08,307.91,55.08Z"/><path class="cls-1" d="M378,162.34q-12.74,0-20.53-7.26-8.85-8.5-8.85-23.19V66q0-14.69,8.85-23.19,7.79-7.26,20.53-7.26t20.53,7.26q8.85,8.5,8.85,23.19v65.84q0,14.69-8.85,23.19Q390.74,162.34,378,162.34Zm0-107.26q-5,0-7.26,2.12-2.66,2.48-2.65,8.85v65.84q0,6.37,2.65,8.85,2.3,2.12,7.26,2.12,5.13,0,7.26-2.12,2.66-2.3,2.65-8.85V66q0-6.55-2.65-8.85Q383.14,55.08,378,55.08Z"/><path class="cls-1" d="M449.33,160.92H420V37h29.38q12.57,0,20.53,7.43,8.85,8.14,8.85,23v63.72a36.62,36.62,0,0,1-2.12,12.92,26.3,26.3,0,0,1-6.9,9.91Q462.08,160.92,449.33,160.92Zm-9.91-19.47h9.91q5.31,0,7.43-1.95,2.48-2.12,2.48-8.32V67.46q0-6.19-2.65-8.85-2.3-2.12-7.26-2.12h-9.91Z"/><path class="cls-1" d="M545.09,37V56.49H525.27V160.92H505.8V56.49H486V37Z"/><path class="cls-1" d="M612,160.92H592.17l-10.09-49.74h-8.85v49.74H553.76V37h29.38q12.57,0,20.53,7.43,8.85,8.14,8.85,23V80.74q0,15-8.85,23.19a18.48,18.48,0,0,1-2.83,2.3ZM593.06,67.46q0-6.19-2.65-8.85-2.3-2.12-7.26-2.12h-9.91V91.71h9.91q5,0,7.26-2.12,2.65-2.48,2.65-8.85Z"/><path class="cls-1" d="M651.82,162.34q-12.74,0-20.53-7.26-8.85-8.5-8.85-23.19V66q0-14.69,8.85-23.19,7.79-7.26,20.53-7.26t20.53,7.26q8.85,8.5,8.85,23.19v65.84q0,14.69-8.85,23.19Q664.56,162.34,651.82,162.34Zm0-107.26q-5,0-7.26,2.12-2.65,2.48-2.65,8.85v65.84q0,6.37,2.65,8.85,2.3,2.12,7.26,2.12,5.13,0,7.26-2.12,2.66-2.3,2.66-8.85V66q0-6.55-2.66-8.85Q657,55.08,651.82,55.08Z"/><path class="cls-1" d="M722.27,120.74,737,37h19.82L732,160.92H712.53L687.75,37h19.82Z"/><path class="cls-1" d="M817.13,56.49H785.28V87.64h21.95v19.47H785.28v34.34h31.86v19.47H765.8V37h51.33Z"/><path class="cls-1" d="M887.4,160.92H867.58l-10.09-49.74h-8.85v49.74H829.17V37h29.38q12.57,0,20.53,7.43,8.85,8.14,8.85,23V80.74q0,15-8.85,23.19a18.51,18.51,0,0,1-2.83,2.3ZM868.46,67.46q0-6.19-2.65-8.85-2.3-2.12-7.26-2.12h-9.91V91.71h9.91q5,0,7.26-2.12,2.65-2.48,2.65-8.85Z"/><path class="cls-1" d="M953.24,37V56.49H933.42V160.92H914V56.49H894.13V37Z"/><path class="cls-1" d="M988.47,162.34q-12.74,0-20.53-7.26-8.85-8.5-8.85-23.19V115.79h19.47v16.11q0,6.37,2.65,8.85,2.3,2.12,7.26,2.12,5.13,0,7.26-2.12,2.66-2.3,2.66-8.85V124.1q0-8.14-6.55-14.16a57.59,57.59,0,0,0-7.43-4.6,69,69,0,0,1-12.21-7.79,39.28,39.28,0,0,1-9.74-12.92,36.58,36.58,0,0,1-3.36-15.58V66q0-14.69,8.85-23.19,7.79-7.26,20.53-7.26T1009,42.86q8.85,8.5,8.85,23.19v10.8H998.38V66q0-6.55-2.66-8.85-2.12-2.12-7.26-2.12-5,0-7.26,2.12-2.65,2.48-2.65,8.85v3a18.11,18.11,0,0,0,6.55,14,55.49,55.49,0,0,0,6.9,4.25q9.2,5,12.74,8.14,13.1,11.68,13.1,28.67v7.79q0,14.69-8.85,23.19Q1001.21,162.34,988.47,162.34Z"/><path class="cls-1" d="M570.34,180.36a2.7,2.7,0,0,1,2.71,2.71l0,1.2a33.18,33.18,0,0,0,.34,4.21,3.87,3.87,0,0,1,3.14-2.11,2.63,2.63,0,0,1,2.28,1.55,5.47,5.47,0,0,1,.47,1.08l.13.52c.13.3.3.69.43,1.08v-.13a19.7,19.7,0,0,1,.34-2.84l.39-2.11a8.66,8.66,0,0,1,.34-1.55v-.26l0-.52a2.77,2.77,0,0,1,2.67-2.45,2.66,2.66,0,0,1,2.62,2.84l0,.56a6.9,6.9,0,0,1-.26,1.42c0,.13-.09.43-.17.9l-.39,2.15L583.89,202c0,1.59-.56,2.67-2,3a3.08,3.08,0,0,1-.86.09,2.5,2.5,0,0,1-2.54-1.59v-.09a8.38,8.38,0,0,1-.34-1.12c-.09-.3-.17-.6-.3-.95a6,6,0,0,1-.34-1.46c0-.13,0-.22-.09-.26a18.22,18.22,0,0,1-.73-3.22,26.57,26.57,0,0,1-1.08,5,2.58,2.58,0,0,1-1.72,2.71,2.25,2.25,0,0,1-.9.17,2.51,2.51,0,0,1-1.12-.26l-.6-.26a4.72,4.72,0,0,1-2.06-1.85,7.49,7.49,0,0,1-.86-1.63l-.39-1.08a6.67,6.67,0,0,1-.39-1.68,2.74,2.74,0,0,1-.09-.3c-1.94-6.75-2.28-8.77-2.45-9.42-.17-.86-.47-2.54-.6-3.27a9,9,0,0,1,0-1v-.3a2.64,2.64,0,0,1,2.67-2.62,2.45,2.45,0,0,1,1.5.52A2.55,2.55,0,0,1,570.34,180.36Z"/><path class="cls-1" d="M599.11,196.1a4.3,4.3,0,0,0,.6,1.55,4.35,4.35,0,0,0,1.5,1.08,5.11,5.11,0,0,0,1.89.73c.56,0,1,.09,1.25.09a1.78,1.78,0,0,1,.47-.3l.26-.21a2.4,2.4,0,0,1,1.42-.43,2.62,2.62,0,0,1,2.28,1.16,2.4,2.4,0,0,1,.43,1.42,2.6,2.6,0,0,1-1.16,2.24l-.3.21-.65.43a6.05,6.05,0,0,1-3.05.77c-.47,0-.95,0-1.5-.09a1.19,1.19,0,0,0-.39,0,2.79,2.79,0,0,1-1.33.34h-.73c-.56,0-1.16,0-1.76-.09a8.6,8.6,0,0,1-2.62-.64,8.48,8.48,0,0,1-3-1.89,6.8,6.8,0,0,1-1.89-2.92,8.72,8.72,0,0,1-.34-2.36l0-2.28c0-.9,0-1.55,0-1.93a14.59,14.59,0,0,1,.52-3.57,20,20,0,0,1,1.16-3.7,15.75,15.75,0,0,1,.95-1.76,9.75,9.75,0,0,1,.9-1.2,4.56,4.56,0,0,1,1.76-1.29,4,4,0,0,1,1.63-.3,1.74,1.74,0,0,1,.39-.21,4.27,4.27,0,0,1,1.38-.43l1.63-.17a1,1,0,0,1,.52,0c.21,0,.39.09.43,0h0s.17,0,.34.09.3.13.34.09a1.9,1.9,0,0,1,.34.13l.34.17.3.17c.17.13.26.17.3.17a7,7,0,0,1,2.62,2.37,7.61,7.61,0,0,1,1.29,3,12.62,12.62,0,0,1,.26,2.62,12.48,12.48,0,0,1-.13,2.32,3.9,3.9,0,0,1-.43,1.42,2.52,2.52,0,0,1-1.33,1.33,3.93,3.93,0,0,1-1.63.39H601l-1.93,0h-.17A10.93,10.93,0,0,0,599.11,196.1Zm1.89-6.84h1.68a10,10,0,0,0-.13-1.72,3.42,3.42,0,0,0-.47-1.08,4.06,4.06,0,0,0-.77-.69l-.47-.21c-.21,0-.43,0-.73.09l-.21.26a5.37,5.37,0,0,0-.73,2.06,10.91,10.91,0,0,0-.17,1.25h.3Z"/><path class="cls-1" d="M643.05,186.34a2.57,2.57,0,0,1-2,.56l-.26,0a7.31,7.31,0,0,1-1.68-.6,3.66,3.66,0,0,0-.73-.21,9.07,9.07,0,0,0-1.12-.09h-.09a6.3,6.3,0,0,0-.47.52,7.91,7.91,0,0,0-1.12,2.41,18.87,18.87,0,0,0-.77,3.83c-.09,1.42-.13,2.41-.13,2.88a8.3,8.3,0,0,0,0,1.08l.21.43a3.51,3.51,0,0,0,.86.95,8.57,8.57,0,0,0,1.16.82c.22.09.34.17.47.21h.64a2.73,2.73,0,0,1,1.46-.43,2.51,2.51,0,0,1,2.15,1.12,2.33,2.33,0,0,1,.52,1.46,2.66,2.66,0,0,1-1.16,2.24l-.3.21a3.52,3.52,0,0,1-2.11.69h-.82a7,7,0,0,1-1,0,3,3,0,0,1-1,.21h-.34a15.41,15.41,0,0,1-1.55-.13,7.42,7.42,0,0,1-2.88-1,13.57,13.57,0,0,1-1.76-1.2,9.93,9.93,0,0,1-1.55-1.68,6.26,6.26,0,0,1-1.29-3.27c0-.43,0-.9,0-1.46s0-1.16,0-1.81a17.89,17.89,0,0,1,.34-3.18,29.87,29.87,0,0,1,1-3.18,24.46,24.46,0,0,1,1.33-3.14,8.27,8.27,0,0,1,1.76-2.15,5.22,5.22,0,0,1,2.19-1.08,6.39,6.39,0,0,1,1.46-.17h.39a5.67,5.67,0,0,1,2.37-.43,10.56,10.56,0,0,1,2.06.17,7.92,7.92,0,0,1,2,.64l.3.13.17,0a2.52,2.52,0,0,1,1.76,1,3.23,3.23,0,0,1,.56,1.59A2.42,2.42,0,0,1,643.05,186.34Z"/><path class="cls-1" d="M648.47,187.67a4,4,0,0,1,3.31-3.53,2.65,2.65,0,0,1,1.33-.86,11.82,11.82,0,0,1,4.6-.73c5,0,6.36,5.16,6.49,12.08v7.22a2.63,2.63,0,0,1-2.62,2.62,2.49,2.49,0,0,1-2.24-1.25,8.58,8.58,0,0,1-4.39,1.33c-3.18,0-5.76-1.42-5.76-4.39,0-4.73,3.87-10.28,8-10.49a3.59,3.59,0,0,0-.47-.73,10.76,10.76,0,0,0-3.48.26,2.59,2.59,0,0,1-2.15,1.08,2.47,2.47,0,0,1-1.33-.34A2.5,2.5,0,0,1,648.47,187.67Zm8.81,7.4a7.33,7.33,0,0,0-.77.69c-.47.56-.86,1.07-1.16,1.46a6.26,6.26,0,0,0-1,2.75.39.39,0,0,0,0,.21.84.84,0,0,0,.34,0,3.27,3.27,0,0,0,.9-.13,2.14,2.14,0,0,0,.77-.43l1.16-.6.69-.43-.09-3.66h-.56Z"/><path class="cls-1" d="M696.63,200.48a8.62,8.62,0,0,1,.3,1.46,2.6,2.6,0,0,1-2.62,2.62c-2.32,0-3.05-2.45-3.05-5.42,0-2.58.52-4,.52-5.59a14.86,14.86,0,0,0-.34-4,2.56,2.56,0,0,0-.6-.95s0,0-.43,0c-3.7.52-3.4,9.55-3.53,12.81,0,1.5-.65,3.14-3.57,3.61-1.42.22-2.15-1-2.15-2.75v-9.42c0-2.75-1.29-4.47-3-4.47a3.22,3.22,0,0,0-1.33.34c-.17,3.57-.64,11.14-.77,12a11.37,11.37,0,0,0,0,1.38v1.63a2.7,2.7,0,0,1-2.67,2.62,13.75,13.75,0,0,1-4.82-4.94c0-.56.09-1.2.13-1.76l.6-11.39c.17-2.37.34-4.73.52-5.5a2.74,2.74,0,0,1,2.67-2.24,3.55,3.55,0,0,1,1.08.26,2.43,2.43,0,0,1,.77-.13c1.76,0,2.62.82,2.67,2.79a7.11,7.11,0,0,1,3.31-.82,5.82,5.82,0,0,1,2.79.65,5.52,5.52,0,0,1,2.45,2.41,5.79,5.79,0,0,1,3.87-2.36c.17,0,1.16,0,1.38,0,4.73,0,6.36,4.86,6.36,10.53,0,2.24-.69,3.61-.69,5.2A6,6,0,0,0,696.63,200.48Z"/><path class="cls-1" d="M710,196.1a4.31,4.31,0,0,0,.6,1.55,4.36,4.36,0,0,0,1.5,1.08,5.11,5.11,0,0,0,1.89.73c.56,0,1,.09,1.25.09a1.78,1.78,0,0,1,.47-.3L716,199a2.4,2.4,0,0,1,1.42-.43,2.62,2.62,0,0,1,2.28,1.16,2.4,2.4,0,0,1,.43,1.42,2.6,2.6,0,0,1-1.16,2.24l-.3.21-.65.43a6,6,0,0,1-3.05.77c-.47,0-.95,0-1.5-.09a1.2,1.2,0,0,0-.39,0,2.79,2.79,0,0,1-1.33.34H711c-.56,0-1.16,0-1.76-.09a8.61,8.61,0,0,1-2.62-.64,8.49,8.49,0,0,1-3-1.89,6.8,6.8,0,0,1-1.89-2.92,8.7,8.7,0,0,1-.34-2.36l0-2.28c0-.9,0-1.55,0-1.93a14.58,14.58,0,0,1,.52-3.57,20.06,20.06,0,0,1,1.16-3.7,15.76,15.76,0,0,1,.95-1.76,9.75,9.75,0,0,1,.9-1.2,4.57,4.57,0,0,1,1.76-1.29,4,4,0,0,1,1.63-.3,1.74,1.74,0,0,1,.39-.21,4.27,4.27,0,0,1,1.38-.43l1.63-.17a1,1,0,0,1,.52,0c.21,0,.39.09.43,0h0s.17,0,.34.09.3.13.34.09a1.9,1.9,0,0,1,.34.13l.34.17.3.17c.17.13.26.17.3.17a7,7,0,0,1,2.62,2.37,7.62,7.62,0,0,1,1.29,3,16.18,16.18,0,0,1,.13,4.94,3.9,3.9,0,0,1-.43,1.42,2.52,2.52,0,0,1-1.33,1.33,3.92,3.92,0,0,1-1.63.39H711.9l-1.93,0h-.17A11,11,0,0,0,710,196.1Zm1.89-6.84h1.68a10,10,0,0,0-.13-1.72,3.44,3.44,0,0,0-.47-1.08,4.06,4.06,0,0,0-.77-.69l-.47-.21c-.21,0-.43,0-.73.09l-.21.26A5.36,5.36,0,0,0,710,188a11.13,11.13,0,0,0-.17,1.25h.3Z"/><path class="cls-1" d="M754.34,182a2.76,2.76,0,0,1-1.29-.34,2.39,2.39,0,0,0-.77-.09c-2.11,0-3.61,2.41-3.61,6a4.56,4.56,0,0,0,1.51.21,2.64,2.64,0,0,1,0,5.29l-1.38,0a64.41,64.41,0,0,1-1.2,12.77,2.65,2.65,0,0,1-2.84,2.24,3.07,3.07,0,0,1-3.14-3.14c0-.09,0-.3,0-.69a3.72,3.72,0,0,1,0-.65c.09-1.33.09-2.58.09-3.74,0-2.62-.13-4.95-.17-7.57-2.67-.3-4.26-.64-4.26-2.84a2.64,2.64,0,0,1,2.67-2.62c.6,0,1.2,0,1.85,0a10.68,10.68,0,0,1,1.38-5.59c1.81-3.05,4-4.95,6.24-4.95a5.28,5.28,0,0,1,.82.09,5.77,5.77,0,0,1,1.68-.09c.56,0,1,0,1.33,0,1.89,0,3.74,1.16,3.74,3A2.64,2.64,0,0,1,754.34,182Z"/><path class="cls-1" d="M767.06,204c-1.68.13-4-1.94-4.86-3.53a13.76,13.76,0,0,1-2.62-8.26,18.36,18.36,0,0,1,2.79-8.17c.95-2,3-3.22,6.11-3.22,4.09,0,7.57,2.54,7.87,6.23,0,.43,0,1.08,0,1.85,0,2.24-.13,3.35-.26,5-.13,6.49-2.37,10.71-6.79,10.71A4.39,4.39,0,0,1,767.06,204Zm1.68-17.84s-1.07-1.08-1.07,4.73c0,1.59,0,3,.09,4.17a5.11,5.11,0,0,0,2,3.87c.82-1.42,1.33-5.12,1.33-8.56,0-2.19,0-2.49,0-3A2.36,2.36,0,0,0,768.74,186.12Z"/><path class="cls-1" d="M798.8,183.89a2.65,2.65,0,0,1-1.8,2.54c-2.67.9-5.63,3.53-8.77,7.7a39.71,39.71,0,0,1-1.5,9,2.66,2.66,0,0,1-2.54,2,2.72,2.72,0,0,1-2.67-2.32,6.37,6.37,0,0,1-.77-3.4c0-2.36.17-7.78.17-8.47l-.17-7c-.13-2.06.69-3.61,2.37-3.61a13.5,13.5,0,0,1,1.55,0,4.86,4.86,0,0,1,2.06.52c1.29.69,1.5,3.18,1.5,4.6,1.16-1.76,2.75-3.74,5.12-4.51a6.08,6.08,0,0,1,1.89-.34c1.63,0,3.1.77,3.4,2.24A3.06,3.06,0,0,1,798.8,183.89Z"/><path class="cls-1" d="M830.75,184.4a3.44,3.44,0,0,1-.34,1.42c-.73,1.29-2.54,1.85-4.69,2.15l-.52.09c-.09,1.42-.21,2.84-.34,4.39,0,.69-.13,1.59-.13,2.45,0,1.55,0,2.79,1.08,3.74,1.42.39,2.58,1.33,2.58,2.54a3.29,3.29,0,0,1-3.05,3.4c-2.06,0-3.48-.52-4.26-1.42-2.54-3-2.67-7.14-2.62-9.33,0-.3.13-2.49.17-4.9l-1.76.26a2.47,2.47,0,0,1-2.58-2.62,2.83,2.83,0,0,1,2.67-2.67l1.81-.3V180a10.94,10.94,0,0,1,.17-2.45l.09-.34a2.8,2.8,0,0,1,1.12-1.59,2.44,2.44,0,0,1,2.06-1.55,1.46,1.46,0,0,1,.43,0,2.61,2.61,0,0,1,2.54,2.28l0,.3a8.39,8.39,0,0,1,.09,1c.09,1.59.13,3.18.13,3.57v1.33l.39,0a20,20,0,0,1,2.75-.43,1.63,1.63,0,0,1,1,.26A2.45,2.45,0,0,1,830.75,184.4Z"/><path class="cls-1" d="M853.54,197c0,1.5,0,3.18,0,5.07a2.62,2.62,0,0,1-2.62,2.67c-1.46,0-3.14-1.16-3.1-2.67l.17-10.53c0-2-1.63-3.23-3.87-3.23a7.69,7.69,0,0,0-1,.09c0,.82-.56,11.44-.56,12.38v1.63a2.7,2.7,0,0,1-2.67,2.62,17.33,17.33,0,0,1-4.82-4.6c0-.86.17-2.58.17-2.67v-7.14c0-1.81.65-10.84,1.08-14.19a2.72,2.72,0,0,1,2.67-2.24,3.54,3.54,0,0,1,1.07.26,4.12,4.12,0,0,1,1.08-.13c1.72,0,2.36,1.16,2.36,3l-.09,4.77a13.24,13.24,0,0,1,6.45,1.46C852.85,185.35,853.54,186.25,853.54,197Z"/><path class="cls-1" d="M866.44,196.1a3.07,3.07,0,0,0,2.11,2.62,5.1,5.1,0,0,0,1.89.73c.56,0,1,.09,1.25.09a1.77,1.77,0,0,1,.47-.3l.26-.21a2.4,2.4,0,0,1,1.42-.43,2.63,2.63,0,0,1,2.28,1.16,2.4,2.4,0,0,1,.43,1.42,2.6,2.6,0,0,1-1.16,2.24l-.3.21-.64.43a6.05,6.05,0,0,1-3.05.77c-.47,0-.95,0-1.51-.09a1.19,1.19,0,0,0-.39,0,2.79,2.79,0,0,1-1.33.34h-.73c-.56,0-1.16,0-1.76-.09a8.59,8.59,0,0,1-2.62-.64,8.48,8.48,0,0,1-3-1.89,6.79,6.79,0,0,1-1.89-2.92,8.74,8.74,0,0,1-.34-2.36l0-2.28c0-.9,0-1.55,0-1.93a14.61,14.61,0,0,1,.52-3.57,20,20,0,0,1,1.16-3.7,15.59,15.59,0,0,1,.95-1.76,9.75,9.75,0,0,1,.9-1.2,4.56,4.56,0,0,1,1.76-1.29,4,4,0,0,1,1.63-.3,1.75,1.75,0,0,1,.39-.21,4.28,4.28,0,0,1,1.38-.43l1.63-.17a1,1,0,0,1,.52,0c.21,0,.39.09.43,0h0s.17,0,.34.09.3.13.34.09a1.9,1.9,0,0,1,.34.13l.34.17.3.17c.17.13.26.17.3.17a7,7,0,0,1,2.62,2.37,7.61,7.61,0,0,1,1.29,3,16.18,16.18,0,0,1,.13,4.94,3.9,3.9,0,0,1-.43,1.42,2.52,2.52,0,0,1-1.33,1.33,3.93,3.93,0,0,1-1.63.39h-3.44l-1.93,0h-.17A11,11,0,0,0,866.44,196.1Zm1.89-6.84H870a10,10,0,0,0-.13-1.72,3.41,3.41,0,0,0-.47-1.08,4.05,4.05,0,0,0-.77-.69l-.47-.21c-.21,0-.43,0-.73.09l-.21.26a5.38,5.38,0,0,0-.73,2.06,10.91,10.91,0,0,0-.17,1.25h.3Z"/><path class="cls-1" d="M910.77,182a2.76,2.76,0,0,1-1.29-.34,2.38,2.38,0,0,0-.77-.09c-2.11,0-3.61,2.41-3.61,6a4.55,4.55,0,0,0,1.5.21,2.64,2.64,0,1,1,0,5.29l-1.37,0a64.31,64.31,0,0,1-1.21,12.77,2.65,2.65,0,0,1-2.84,2.24,3.07,3.07,0,0,1-3.14-3.14c0-.09,0-.3,0-.69a3.72,3.72,0,0,1,0-.65c.09-1.33.09-2.58.09-3.74,0-2.62-.13-4.95-.17-7.57-2.67-.3-4.26-.64-4.26-2.84a2.64,2.64,0,0,1,2.67-2.62c.6,0,1.2,0,1.85,0a10.67,10.67,0,0,1,1.38-5.59c1.8-3.05,4-4.95,6.23-4.95a5.26,5.26,0,0,1,.82.09,5.78,5.78,0,0,1,1.68-.09c.56,0,1,0,1.33,0,1.89,0,3.74,1.16,3.74,3A2.64,2.64,0,0,1,910.77,182Z"/><path class="cls-1" d="M923.49,204c-1.68.13-4-1.94-4.86-3.53a13.77,13.77,0,0,1-2.62-8.26,18.36,18.36,0,0,1,2.79-8.17c.95-2,3-3.22,6.11-3.22,4.08,0,7.57,2.54,7.87,6.23,0,.43,0,1.08,0,1.85,0,2.24-.13,3.35-.26,5-.13,6.49-2.36,10.71-6.79,10.71A4.4,4.4,0,0,1,923.49,204Zm1.68-17.84s-1.08-1.08-1.08,4.73c0,1.59,0,3,.09,4.17a5.11,5.11,0,0,0,2,3.87c.82-1.42,1.33-5.12,1.33-8.56,0-2.19,0-2.49,0-3A2.37,2.37,0,0,0,925.17,186.12Z"/><path class="cls-1" d="M944.61,204c-1.68.13-4-1.94-4.86-3.53a13.77,13.77,0,0,1-2.62-8.26,18.38,18.38,0,0,1,2.79-8.17c.95-2,3-3.22,6.11-3.22,4.08,0,7.57,2.54,7.87,6.23,0,.43,0,1.08,0,1.85,0,2.24-.13,3.35-.26,5-.13,6.49-2.36,10.71-6.79,10.71A4.39,4.39,0,0,1,944.61,204Zm1.68-17.84s-1.08-1.08-1.08,4.73c0,1.59,0,3,.09,4.17a5.11,5.11,0,0,0,2,3.87c.82-1.42,1.33-5.12,1.33-8.56,0-2.19,0-2.49,0-3A2.36,2.36,0,0,0,946.28,186.12Z"/><path class="cls-1" d="M978,181.87a100.65,100.65,0,0,1-.64,10.92c0-.9-.95,9.12-1,10.41.47.6.6.56.6,1,0,1.2-3.27,1.93-4.6,1.93a1.77,1.77,0,0,1-2-1.89,7.91,7.91,0,0,1-2.62.52c-5.5,0-9.5-3-9.5-8.47,0-5.76,1.68-9.16,5.29-11.7a2.33,2.33,0,0,1,1.59-.47,5.4,5.4,0,0,1,3.23-1,8.81,8.81,0,0,1,2.92.56c0-1.46,0-3.14,0-5s.09-3.48,1.38-4.39a2.62,2.62,0,0,1,2.49-1.59c1.72,0,2.67,1.5,2.67,3.57C977.93,178.08,978,179.93,978,181.87Zm-7.91,16.47a3.6,3.6,0,0,1,.86-.21c.09-1,.13-1.93.17-2.58.09-1.76.13-3.48.17-5.76a4.78,4.78,0,0,0-3.1-1.33,5.17,5.17,0,0,0-1.29,2.45l-.39,5.33C967,197.3,968.69,197.95,970.06,198.33Zm.34,5.89a0,0,0,0,0,0,0S970.36,204.31,970.41,204.23Z"/><path class="cls-1" d="M982.45,202.72a.26.26,0,0,1,0-.17,2.71,2.71,0,0,1-.13-.82,2.58,2.58,0,0,1,1.85-2.49l1.2-.39a8.63,8.63,0,0,1,2.28-.52,3.55,3.55,0,0,1,3.53,3.7c0,2.28-1.68,4.73-4,4.95-.21,0-.39,0-.6,0a8.39,8.39,0,0,1-1-.09,3.14,3.14,0,0,1-2.88-2.06l-.17-.34a2.74,2.74,0,0,1-.17-1A2.38,2.38,0,0,1,982.45,202.72Z"/><path class="cls-1" d="M995.61,202.72a.26.26,0,0,1,0-.17,2.71,2.71,0,0,1-.13-.82,2.58,2.58,0,0,1,1.85-2.49l1.2-.39a8.63,8.63,0,0,1,2.28-.52,3.55,3.55,0,0,1,3.53,3.7c0,2.28-1.68,4.73-4,4.95-.21,0-.39,0-.6,0a8.39,8.39,0,0,1-1-.09,3.14,3.14,0,0,1-2.88-2.06l-.17-.34a2.74,2.74,0,0,1-.17-1A2.38,2.38,0,0,1,995.61,202.72Z"/><path class="cls-1" d="M1008.76,202.72a.26.26,0,0,1,0-.17,2.71,2.71,0,0,1-.13-.82,2.58,2.58,0,0,1,1.85-2.49l1.2-.39a8.63,8.63,0,0,1,2.28-.52,3.55,3.55,0,0,1,3.53,3.7c0,2.28-1.68,4.73-4,4.95-.21,0-.39,0-.6,0a8.39,8.39,0,0,1-1-.09,3.14,3.14,0,0,1-2.88-2.06l-.17-.34a2.74,2.74,0,0,1-.17-1A2.38,2.38,0,0,1,1008.76,202.72Z"/></svg>