<svg id="Layer_1" data-name="Layer 1" xmlns="http://www.w3.org/2000/svg" viewBox="0 0 197 192.08"><defs><style>.cls-1{fill:#ff2e24;}</style></defs><title>Artboard 1</title><path class="cls-1" d="M197,94.09l-27.29,1.47c-.83,2.89-9.46,16-12.44,16.13l-39.11,2.1a4.45,4.45,0,0,1-3.36-1.24,4.75,4.75,0,0,1-.35-6.7,4.47,4.47,0,0,1,3.21-1.61l30.42-1.63a4.5,4.5,0,0,0,3.21-1.59,4.64,4.64,0,0,0,1.21-3.44,4.58,4.58,0,0,0-1.56-3.28,4.42,4.42,0,0,0-3.36-1.24l-30.42,1.63a4.46,4.46,0,0,1-3.36-1.24,4.76,4.76,0,0,1-.35-6.71,4.47,4.47,0,0,1,3.21-1.59l30.42-1.64a4.48,4.48,0,0,0,3.21-1.59,4.62,4.62,0,0,0,1.21-3.43,4.57,4.57,0,0,0-1.56-3.28A4.45,4.45,0,0,0,146.58,74l-30.42,1.64a4.48,4.48,0,0,1-3.36-1.24,4.62,4.62,0,0,1-1.56-3.29,4.7,4.7,0,0,1,1.21-3.43,4.53,4.53,0,0,1,3.21-1.59L154.78,64c3-.16,12.82,10,13.93,12.75l26-1.39C185,32.24,145.6,0,98.5,0,58.2,0,23.56,23.6,8.3,57.39,16.92,62,25.46,66.87,32.39,71.17c6.37-8.62,18.49-11.64,33.3-4.69,17,8,31.1,26.1,25.82,37.79s-27.94,12.54-44.95,4.55C31.75,101.87,26.13,90.5,28.41,80,21,77.48,12.21,74.19,3.48,70.66A93.73,93.73,0,0,0,0,96c0,53,44.1,96,98.5,96s98.5-43,98.5-96C197,95.39,197,94.74,197,94.09Zm-84.83,64.16v5.44H89.65v-5.44A33.52,33.52,0,0,1,68,126.74h65.82A33.52,33.52,0,0,1,112.14,158.24Z"/></svg>